# xmcd
#
# Track frame offsets: 
#        150
#        26230
#        38272
#        48447
#        63832
#        85682
#        98187
#        114332
#        126637
#        150262
#        159047
#
# Disc length: 2380 seconds
#
# Revision: 7
# Processed by: cddbd v1.5.2PL0 Copyright (c) Steve Scherf et al.
# Submitted via: ExactAudioCopyFreeDBPlugin 1.0
#
DISCID=77094a0b
DTITLE=Sly and The Family Stone - Fresh
DYEAR=1973
DGENRE=Funk
TTITLE0=In Time
TTITLE1=If You Want Me To Stay
TTITLE2=Let Me Have It All
TTITLE3=Frisky
TTITLE4=Thankful N' Thoughtful
TTITLE5=Skin I'm In
TTITLE6=I Don't Know (Satisfaction)
TTITLE7=Keep On Dancin'
TTITLE8=Que Sera, Sera (Whatever Will Be, Will Be)
TTITLE9=If It Were Left Up To Me
TTITLE10=Babies Makin' Babies
EXTD=YEAR: 1973
EXTT0=
EXTT1=
EXTT2=
EXTT3=
EXTT4=
EXTT5=
EXTT6=
EXTT7=
EXTT8=
EXTT9=
EXTT10=
PLAYORDER=
